<svg xmlns="http://www.w3.org/2000/svg" viewBox="0 0 120 120" fill="none">
  <rect width="120" height="120" rx="28" fill="#1d1d1f"/>
  <path d="M60 28c-2.8 0-7.2 1.5-9.8 3.6-2.8 2.3-4.9 5.6-4.1 9.5 3.5-.2 7.1-1.9 9.4-4.3 2.7-2.8 4.8-6.5 4.5-8.8zM50.2 42.8c-5.5.3-10.4 3.2-13.2 3.2-2.8 0-7.1-3-11.7-2.9-6 .1-11.5 3.5-14.6 8.9-6.2 10.8-1.6 26.8 4.4 35.6 2.9 4.2 6.4 8.9 11 8.7 4.4-.2 6.1-2.9 11.4-2.9 5.3 0 6.8 2.9 11.5 2.8 4.7-.1 7.7-4.3 10.6-8.5 3.3-4.8 4.7-9.5 4.8-9.7-.1-.1-9.2-3.5-9.3-13.9-.1-8.7 7.2-12.9 7.5-13.1-4.1-6-10.5-6.7-12.7-6.8-5.2-.4-9.5 3.1-12 3.1z" fill="#f5f5f7" transform="translate(30, 18) scale(1.1)"/>
</svg>
